<svg width="9" height="10" viewBox="0 0 9 10" fill="none" xmlns="http://www.w3.org/2000/svg">
<path d="M8.03898 8.50552C8.15021 8.62531 8.20583 8.75793 8.20583 8.90339C8.20583 9.06597 8.14166 9.21143 8.01331 9.33977C7.88496 9.45956 7.7395 9.51946 7.57693 9.51946C7.39725 9.51946 7.24323 9.44245 7.11488 9.28843L4.32976 5.78456L1.53179 9.28843C1.40345 9.44245 1.25371 9.51946 1.08258 9.51946C0.920007 9.51946 0.774547 9.45956 0.6462 9.33977C0.517853 9.21143 0.45368 9.06597 0.45368 8.90339C0.45368 8.76649 0.505018 8.63386 0.607696 8.50552L3.55967 4.84763L0.748878 1.3566C0.6462 1.24536 0.594861 1.11274 0.594861 0.95872C0.594861 0.796147 0.654757 0.654966 0.774547 0.535175C0.902894 0.406828 1.04835 0.342655 1.21093 0.342655C1.39061 0.342655 1.54463 0.419663 1.67298 0.573679L4.32976 3.92353L6.98654 0.573679C7.10633 0.419663 7.26034 0.342655 7.44859 0.342655C7.61116 0.342655 7.75662 0.406828 7.88496 0.535175C8.01331 0.654966 8.07748 0.796147 8.07748 0.95872C8.07748 1.10418 8.02187 1.2368 7.91063 1.3566L5.09984 4.84763L8.03898 8.50552Z" fill="#868E96"/>
</svg>
